<svg xmlns="http://www.w3.org/2000/svg" width="118" height="6" viewBox="0 0 118 6"><g><g><path fill="#c45f1c" d="M.5 5.47l-.487-.808L8.461.002l.487.808-.181.1 7.028 4.042-.175-.29 8.448-4.66.487.808-.181.1 7.028 4.042-.175-.29 8.448-4.66.487.808-.181.1 7.028 4.042-.175-.29L55.28.002l.488.808-.181.1 7.028 4.042-.175-.29 8.447-4.66.488.808-.181.1 7.028 4.042-.175-.29 8.447-4.66.488.808-.182.1 7.029 4.042-.175-.29 8.447-4.66.488.808-.182.1 7.028 4.042-.174-.29 8.447-4.66.488.808-8.448 4.66-.055-.093-.357.617-7.904-4.546-7.29 4.021-.056-.092-.357.617-7.904-4.546-7.29 4.021-.056-.092-.357.617-7.904-4.546-7.29 4.021-.056-.092-.357.617-7.904-4.546-7.29 4.021-.056-.092-.357.617-7.904-4.546-7.29 4.021-.056-.092-.357.617L23.4 1.448l-7.291 4.021-.056-.092-.357.617-7.903-4.546z"/></g></g></svg>