<svg xmlns="http://www.w3.org/2000/svg" width="15" height="15" viewBox="0 0 15 15"><g><g><path fill="#333" d="M13.073-.001c1.059 0 1.925.784 1.925 1.925v11.148c0 1.142-.866 1.926-1.925 1.926H1.924C.865 14.998 0 14.214 0 13.072V1.924C0 .783.865-.001 1.924-.001zM10.25 2.34v1.617c0 .371.304.675.675.675h1.695a.677.677 0 0 0 .675-.675V2.34a.677.677 0 0 0-.675-.675h-1.695a.677.677 0 0 0-.675.675zm1.733 4.001c.124.408.192.84.192 1.287 0 2.495-2.087 4.518-4.662 4.518-2.575 0-4.662-2.023-4.662-4.518 0-.447.067-.879.192-1.287H1.666v6.337c0 .327.268.596.596.596h10.445a.598.598 0 0 0 .596-.596V6.34zm-4.47-1.794C5.849 4.547 4.5 5.854 4.5 7.466s1.35 2.918 3.013 2.918c1.663 0 3.012-1.306 3.012-2.918s-1.348-2.92-3.012-2.92z"/><path fill="#fff" d="M13.073-.001c1.059 0 1.925.784 1.925 1.925v11.148c0 1.142-.866 1.926-1.925 1.926H1.924C.865 14.998 0 14.214 0 13.072V1.924C0 .783.865-.001 1.924-.001zM10.25 2.34v1.617c0 .371.304.675.675.675h1.695a.677.677 0 0 0 .675-.675V2.34a.677.677 0 0 0-.675-.675h-1.695a.677.677 0 0 0-.675.675zm1.733 4.001c.124.408.192.84.192 1.287 0 2.495-2.087 4.518-4.662 4.518-2.575 0-4.662-2.023-4.662-4.518 0-.447.067-.879.192-1.287H1.666v6.337c0 .327.268.596.596.596h10.445a.598.598 0 0 0 .596-.596V6.34zm-4.47-1.794C5.849 4.547 4.5 5.854 4.5 7.466s1.35 2.918 3.013 2.918c1.663 0 3.012-1.306 3.012-2.918s-1.348-2.92-3.012-2.92z"/></g></g></svg>